# xmcd CD database file generated by Grip 3.3.1
# 
# Track frame offsets:
#       150
#       9781
#       24643
#       34863
#       47070
#       56744
#       65892
#       99864
#       143154
#       176400
#       229625
#       240516
# 
# Disc length: 4041 seconds
# 
# Revision: 1
# Processed by: cddbd v1.5.2PL0 Copyright (c) Steve Scherf et al.
# Submitted via: Grip 3.3.1
# 
DISCID=940fc70c
DTITLE=Jard van Nes - ntr: Luister - Jard van Nes Special
DYEAR=1988
DGENRE=Classical
TTITLE0=Var det en dröm, Op.37 (Wecksell) - Jean Sibelius
TTITLE1=Flickan kom ifrån sin älsklings möte, Op.37 (Runeberg) - Jean 
TTITLE1=Sibelius
TTITLE2=Svarta Rosor, Op.36 (Josephson) - Jean Sibelius
TTITLE3=Säf säf susa, Op. 36 (Fröding) - Jean Sibelius
TTITLE4=Demanten på marsnön, Op.36 (Wecksel) - Jean Sibelius
TTITLE5=Våren flyktar hastigt, Op.13 (Runeberg) - Jean Sibelius
TTITLE6=Die Loreley (Heine) - Franz Liszt
TTITLE7=Mignon (Goethe) - Franz Liszt
TTITLE8=Die drei Zigeuner (Lenau) - Franz Liszt
TTITLE9=La Fleur des eaux - Poème de l'amour et de la mer (Maurice Bouch
TTITLE9=or) - Ernest Chausson
TTITLE10=Interlude - Poème de l'amour et de la mer (Maurice Bouchor) - Er
TTITLE10=nest Chausson
TTITLE11=La Mort de l’amour - Poème de l'amour et de la me (Maurice Bou
TTITLE11=chor) - Ernest Chausson
EXTD=
EXTT0=
EXTT1=
EXTT2=
EXTT3=
EXTT4=
EXTT5=
EXTT6=
EXTT7=
EXTT8=
EXTT9=
EXTT10=
EXTT11=
PLAYORDER=
